<svg width="20" height="18" viewBox="0 0 20 18" fill="none" xmlns="http://www.w3.org/2000/svg">
<path d="M19.8085 8.16797C18.8324 12.3014 13.1219 15.9654 10.8918 17.2579C10.3347 17.5807 9.66526 17.5807 9.10824 17.2579C6.87811 15.9654 1.16765 12.3014 0.191526 8.16797C-0.689884 4.43556 1.54708 0.557467 5.33511 0.501736C5.41331 0.500585 5.49265 0.5 5.57317 0.5C7.09809 0.5 8.45947 1.26167 9.2576 1.82479C9.69363 2.13244 10.3064 2.13244 10.7424 1.8248C11.5405 1.26167 12.9019 0.5 14.4268 0.5C14.5073 0.5 14.5867 0.500585 14.6649 0.501736C18.4529 0.557467 20.6899 4.43556 19.8085 8.16797Z" fill="#FF91C8"/>
</svg>
