<svg width="207" height="197" viewBox="0 0 207 197" fill="none" xmlns="http://www.w3.org/2000/svg">
<path d="M11 11H36.7543L41.9052 31.6034M41.9052 31.6034L62.5086 134.621H175.828L196.431 31.6034H41.9052Z" stroke="black" stroke-width="20.6034" stroke-linecap="round" stroke-linejoin="round"/>
<path d="M155.224 186.129C160.914 186.129 165.526 181.517 165.526 175.828C165.526 170.138 160.914 165.526 155.224 165.526C149.535 165.526 144.922 170.138 144.922 175.828C144.922 181.517 149.535 186.129 155.224 186.129Z" stroke="black" stroke-width="20.6034" stroke-linecap="round" stroke-linejoin="round"/>
<path d="M83.1121 186.129C88.8015 186.129 93.4138 181.517 93.4138 175.828C93.4138 170.138 88.8015 165.526 83.1121 165.526C77.4226 165.526 72.8103 170.138 72.8103 175.828C72.8103 181.517 77.4226 186.129 83.1121 186.129Z" stroke="black" stroke-width="20.6034" stroke-linecap="round" stroke-linejoin="round"/>
</svg>
