<svg width="186" height="167" viewBox="0 0 186 167" fill="none" xmlns="http://www.w3.org/2000/svg">
<path fill-rule="evenodd" clip-rule="evenodd" d="M87.1526 16.5595C89.1738 18.5436 91.0466 20.6668 92.7155 22.8642C98.145 15.7243 105.158 9.94274 113.203 5.97515C121.247 2.00755 130.104 -0.0377045 139.073 0.000526257C156.93 0.000526257 168.983 7.64955 176.271 17.7648C183.206 27.4072 185.431 38.6907 185.431 46.3583C185.431 82.7398 162.197 112.863 140.807 133.066C128.635 144.487 115.343 154.654 101.134 163.412C99.9447 164.139 98.7454 164.85 97.5367 165.544L97.3142 165.665L97.2493 165.702L97.2215 165.72L92.7155 157.617C88.2095 165.72 88.2003 165.711 88.2003 165.711H88.1817L88.1168 165.665L87.8943 165.544C86.6823 164.855 85.483 164.144 84.2969 163.412C70.0909 154.653 56.8027 144.486 44.6332 133.066C23.2252 112.854 0 82.7398 0 46.3583C0 38.6907 2.22517 27.4072 9.16029 17.7648C16.4477 7.64955 28.5007 0.000526257 46.3578 0.000526257C63.9366 0.000526257 77.7883 7.37141 87.1526 16.5595ZM92.7155 157.617L97.2215 165.72C95.8433 166.487 94.2924 166.889 92.7155 166.889C91.1386 166.889 89.5877 166.487 88.2095 165.72L92.7155 157.617Z" fill="black"/>
</svg>
